<?xml version="1.0" standalone="no"?><!DOCTYPE svg PUBLIC "-//W3C//DTD SVG 1.1//EN" "http://www.w3.org/Graphics/SVG/1.1/DTD/svg11.dtd"><svg t="1730783518729" class="icon" viewBox="0 0 1024 1024" version="1.1" xmlns="http://www.w3.org/2000/svg" p-id="10732" xmlns:xlink="http://www.w3.org/1999/xlink" width="200" height="200"><path d="M832 1024H192c-106.046 0-192-85.954-192-192V192C0 85.954 85.954 0 192 0h640c106.046 0 192 85.954 192 192v640c0 106.046-85.954 192-192 192z m0 0" fill="#E3F8FA" p-id="10733"></path><path d="M469.344 768c38.624 0 70.946-27.524 78.366-64h-156.764c7.452 36.476 39.74 64 78.398 64z m0 0" fill="#8CE1EB" p-id="10734"></path><path d="M630.946 565.25c-0.548 0-1.086 0.094-1.634 0.094-94.108 0-170.656-76.58-170.656-170.656 0-36.96 11.938-71.134 32-99.102v-18.242c0-11.804-9.54-21.344-21.312-21.344S448 265.54 448 277.344v23.04c-72.258 10.398-128 72.546-128 147.616v59.484c0 42.212-18.492 82.056-50.946 109.508A37.304 37.304 0 0 0 256 645.344c0 20.578 16.734 37.344 37.344 37.344h352c20.578 0 37.344-16.734 37.344-37.344 0-10.914-4.766-21.25-13.25-28.516-16.86-14.234-29.82-31.93-38.492-51.578z m0 0" fill="#26C6DA" p-id="10735"></path><path d="M629.344 256c-76.446 0-138.656 62.21-138.656 138.656s62.21 138.656 138.656 138.656S768 471.132 768 394.656 705.79 256 629.344 256z m53.312 160h-32v32c0 11.774-9.57 21.344-21.344 21.344S608 459.774 608 448v-32h-32c-11.774 0-21.344-9.57-21.344-21.344s9.57-21.344 21.344-21.344h32v-32c0-11.772 9.57-21.312 21.344-21.312s21.344 9.57 21.344 21.344v32h32c11.772 0 21.344 9.57 21.344 21.344S694.46 416 682.656 416z m0 0" fill="#8CE1EB" p-id="10736"></path></svg>