<?xml version="1.0" standalone="no"?><!DOCTYPE svg PUBLIC "-//W3C//DTD SVG 1.1//EN" "http://www.w3.org/Graphics/SVG/1.1/DTD/svg11.dtd"><svg t="1730788353930" class="icon" viewBox="0 0 1024 1024" version="1.1" xmlns="http://www.w3.org/2000/svg" p-id="29918" xmlns:xlink="http://www.w3.org/1999/xlink" width="200" height="200"><path d="M910.208 0H113.792A114.133333 114.133333 0 0 0 0 113.792v796.416C0 972.8 51.2 1024 113.792 1024h796.416C972.8 1024 1024 972.8 1024 910.208V113.792C1024 51.2 972.8 0 910.208 0z" fill="#DD7FF3" p-id="29919"></path><path d="M331.946667 447.018667H274.304v148.224h57.6l161.792 154.453333V292.565333zM548.565333 621.696c62.848 0 109.738667-45.525333 109.738667-100.565333 0-55.978667-46.890667-100.565333-109.738667-100.565334v201.130667z" fill="#FFFFFF" p-id="29920"></path><path d="M548.565333 292.565333v60.330667c88.661333 9.386667 155.861333 81.578667 155.861334 168.234667 0 86.698667-66.304 158.890667-155.861334 168.234666v60.330667C672.170667 740.352 768 640.938667 768 521.130667c0-120.661333-95.829333-219.221333-219.434667-228.565334z" fill="#FFFFFF" p-id="29921"></path></svg>