<?xml version="1.0" standalone="no"?><!DOCTYPE svg PUBLIC "-//W3C//DTD SVG 1.1//EN" "http://www.w3.org/Graphics/SVG/1.1/DTD/svg11.dtd"><svg t="1730788116982" class="icon" viewBox="0 0 1024 1024" version="1.1" xmlns="http://www.w3.org/2000/svg" p-id="25723" xmlns:xlink="http://www.w3.org/1999/xlink" width="200" height="200"><path d="M104.448 114.944v813.909333c0 34.133333 24.32 62.464 54.357333 62.464h732.757334c30.037333 0 54.357333-27.989333 54.357333-62.464V114.944c0-34.133333-24.32-62.464-54.357333-62.464H158.805333c-30.037333 0-54.357333 27.989333-54.357333 62.464z m675.925333 302.165333H269.909333c-30.037333 0-54.357333-27.989333-54.357333-62.464V215.210667c0-34.133333 24.32-62.464 54.357333-62.464h510.464c30.037333 0 54.442667 27.989333 54.442667 62.464v139.434666c0 34.474667-24.149333 62.464-54.442667 62.464z" fill="#231815" p-id="25724"></path><path d="M518.912 472.149333a238.933333 238.933333 0 1 0 238.933333 238.933334 238.933333 238.933333 0 0 0-238.933333-238.933334z m0 335.957334a97.024 97.024 0 1 1 97.024-97.024A97.024 97.024 0 0 1 518.912 808.106667z" fill="#FFFFFF" p-id="25725"></path><path d="M719.274667 711.082667l-39.168-38.4 0.256 77.056 38.912-38.656zM679.594667 711.253333l-39.168-38.4 0.256 77.056 38.912-38.656z" fill="#231815" p-id="25726"></path><path d="M724.821333 660.309333l0.341334 101.461334" fill="#FFFFFF" p-id="25727"></path><path d="M317.44 711.082667l39.168-38.4-0.256 77.056-38.912-38.656zM357.12 711.253333l39.168-38.4-0.256 77.056-38.912-38.656z" fill="#231815" p-id="25728"></path><path d="M311.893333 660.309333l-0.341333 101.461334" fill="#FFFFFF" p-id="25729"></path><path d="M559.445333 719.616l-102.485333-43.178667v86.272l102.485333-43.093333z" fill="#FFFFFF" p-id="25730"></path><path d="M555.264 676.437333v86.272" fill="#FFFFFF" p-id="25731"></path><path d="M580.864 676.437333v86.272" fill="#231815" p-id="25732"></path></svg>