<?xml version="1.0" standalone="no"?><!DOCTYPE svg PUBLIC "-//W3C//DTD SVG 1.1//EN" "http://www.w3.org/Graphics/SVG/1.1/DTD/svg11.dtd"><svg t="1730441072055" class="icon" viewBox="0 0 1024 1024" version="1.1" xmlns="http://www.w3.org/2000/svg" p-id="9527" xmlns:xlink="http://www.w3.org/1999/xlink" width="200" height="200"><path d="M938.668 0.012H85.33c-35.28 0-63.998 28.704-63.998 63.998v895.978c0 35.312 28.718 64 63.998 64h853.338c35.25 0 64-28.688 64-64V64.01c0-35.296-28.75-63.998-64-63.998z" fill="#656D78" p-id="9528"></path><path d="M170.672 938.676c-11.782 0-21.344-9.562-21.344-21.374V661.308c0-11.75 9.562-21.312 21.344-21.312s21.312 9.562 21.312 21.312v255.994c0 11.812-9.53 21.374-21.312 21.374z" fill="#434A54" p-id="9529"></path><path d="M127.986 703.996h85.342v85.308H127.986z" fill="#E6E9ED" p-id="9530"></path><path d="M341.324 938.676c-11.782 0-21.344-9.562-21.344-21.374V661.308c0-11.75 9.562-21.312 21.344-21.312s21.344 9.562 21.344 21.312v255.994c0 11.812-9.562 21.374-21.344 21.374z" fill="#434A54" p-id="9531"></path><path d="M298.668 853.304h85.31v85.372h-85.31z" fill="#E6E9ED" p-id="9532"></path><path d="M511.976 938.676c-11.75 0-21.312-9.562-21.312-21.374V661.308c0-11.75 9.562-21.312 21.312-21.312 11.812 0 21.342 9.562 21.342 21.312v255.994c0 11.812-9.528 21.374-21.342 21.374z" fill="#434A54" p-id="9533"></path><path d="M469.32 746.682h85.358v85.31H469.32z" fill="#E6E9ED" p-id="9534"></path><path d="M682.676 938.676a21.366 21.366 0 0 1-21.376-21.374V661.308c0-11.75 9.562-21.312 21.376-21.312 11.748 0 21.31 9.562 21.31 21.312v255.994c0 11.812-9.562 21.374-21.31 21.374z" fill="#434A54" p-id="9535"></path><path d="M639.988 789.304h85.31v85.376h-85.31z" fill="#E6E9ED" p-id="9536"></path><path d="M853.294 938.676c-11.748 0-21.31-9.562-21.31-21.374V661.308c0-11.75 9.562-21.312 21.31-21.312 11.812 0 21.376 9.562 21.376 21.312v255.994a21.364 21.364 0 0 1-21.376 21.374z" fill="#434A54" p-id="9537"></path><path d="M810.672 639.996h85.308v85.31h-85.308zM213.328 149.336c0 23.562-19.094 42.672-42.656 42.672s-42.686-19.11-42.686-42.672c0-23.56 19.124-42.654 42.686-42.654s42.656 19.094 42.656 42.654z" fill="#E6E9ED" p-id="9538"></path><path d="M170.672 213.336c-35.28 0-63.998-28.704-63.998-64 0-35.28 28.718-63.998 63.998-63.998 35.282 0 63.998 28.718 63.998 63.998 0 35.296-28.716 64-63.998 64z m0-85.326c-11.782 0-21.344 9.578-21.344 21.326 0 11.766 9.562 21.344 21.344 21.344 11.75 0 21.312-9.578 21.312-21.344 0-11.748-9.562-21.326-21.312-21.326z" fill="#CCD1D9" p-id="9539"></path><path d="M383.978 149.336c0 23.562-19.092 42.672-42.654 42.672s-42.656-19.11-42.656-42.672c0-23.56 19.094-42.654 42.656-42.654s42.654 19.094 42.654 42.654z" fill="#E6E9ED" p-id="9540"></path><path d="M341.324 213.336c-35.282 0-63.998-28.704-63.998-64 0-35.28 28.716-63.998 63.998-63.998 35.28 0 63.998 28.718 63.998 63.998 0 35.296-28.718 64-63.998 64z m0-85.326c-11.75 0-21.344 9.578-21.344 21.326 0 11.766 9.594 21.344 21.344 21.344 11.782 0 21.344-9.578 21.344-21.344 0-11.748-9.562-21.326-21.344-21.326z" fill="#CCD1D9" p-id="9541"></path><path d="M554.678 149.336c0 23.562-19.11 42.672-42.702 42.672-23.562 0-42.656-19.11-42.656-42.672 0-23.56 19.094-42.654 42.656-42.654 23.592 0 42.702 19.094 42.702 42.654z" fill="#E6E9ED" p-id="9542"></path><path d="M511.976 213.336c-35.282 0-63.998-28.704-63.998-64 0-35.28 28.716-63.998 63.998-63.998 35.326 0 64.012 28.718 64.012 63.998 0 35.296-28.686 64-64.012 64z m0-85.326c-11.75 0-21.312 9.578-21.312 21.326 0 11.766 9.562 21.344 21.312 21.344 11.782 0 21.342-9.578 21.342-21.344 0-11.748-9.56-21.326-21.342-21.326z" fill="#CCD1D9" p-id="9543"></path><path d="M725.298 149.336c0 23.562-19.062 42.672-42.624 42.672s-42.688-19.11-42.688-42.672c0-23.56 19.124-42.654 42.688-42.654 23.562 0 42.624 19.094 42.624 42.654z" fill="#E6E9ED" p-id="9544"></path><path d="M682.676 213.336c-35.312 0-64-28.704-64-64 0-35.28 28.688-63.998 64-63.998 35.248 0 63.996 28.718 63.996 63.998 0 35.296-28.748 64-63.996 64z m0-85.326c-11.812 0-21.376 9.578-21.376 21.326 0 11.766 9.562 21.344 21.376 21.344 11.748 0 21.31-9.578 21.31-21.344 0-11.748-9.562-21.326-21.31-21.326z" fill="#CCD1D9" p-id="9545"></path><path d="M895.98 149.336c0 23.562-19.124 42.672-42.686 42.672-23.56 0-42.624-19.11-42.624-42.672 0-23.56 19.062-42.654 42.624-42.654 23.564 0 42.686 19.094 42.686 42.654z" fill="#E6E9ED" p-id="9546"></path><path d="M853.294 213.336c-35.248 0-63.998-28.704-63.998-64 0-35.28 28.75-63.998 63.998-63.998 35.31 0 63.998 28.718 63.998 63.998 0 35.296-28.686 64-63.998 64z m0-85.326c-11.748 0-21.31 9.578-21.31 21.326 0 11.766 9.562 21.344 21.31 21.344 11.812 0 21.376-9.578 21.376-21.344 0-11.748-9.562-21.326-21.376-21.326z" fill="#CCD1D9" p-id="9547"></path><path d="M127.986 298.678h85.342v85.324H127.986z" fill="#A0D468" p-id="9548"></path><path d="M213.328 298.678h85.34v85.324h-85.34z" fill="#AC92EB" p-id="9549"></path><path d="M298.668 298.678h85.31v85.324h-85.31z" fill="#A0D468" p-id="9550"></path><path d="M383.978 298.678h85.342v85.324h-85.342z" fill="#AC92EB" p-id="9551"></path><path d="M469.32 298.678h85.358v85.324H469.32z" fill="#48CFAD" p-id="9552"></path><path d="M554.678 298.678h85.31v85.324h-85.31z" fill="#AC92EB" p-id="9553"></path><path d="M639.988 298.678h85.31v85.324h-85.31z" fill="#48CFAD" p-id="9554"></path><path d="M127.986 384.002h85.342v85.326H127.986z" fill="#5D9CEC" p-id="9555"></path><path d="M213.328 384.002h85.34v85.326h-85.34z" fill="#48CFAD" p-id="9556"></path><path d="M298.668 384.002h85.31v85.326h-85.31z" fill="#AC92EB" p-id="9557"></path><path d="M383.978 384.002h85.342v85.326h-85.342z" fill="#5D9CEC" p-id="9558"></path><path d="M469.32 384.002h85.358v85.326H469.32z" fill="#AC92EB" p-id="9559"></path><path d="M554.678 384.002h85.31v85.326h-85.31z" fill="#48CFAD" p-id="9560"></path><path d="M639.988 384.002h85.31v85.326h-85.31z" fill="#A0D468" p-id="9561"></path><path d="M127.986 469.328h85.342v85.36H127.986z" fill="#EC87C0" p-id="9562"></path><path d="M213.328 469.328h85.34v85.36h-85.34z" fill="#5D9CEC" p-id="9563"></path><path d="M298.668 469.328h85.31v85.36h-85.31z" fill="#A0D468" p-id="9564"></path><path d="M383.978 469.328h85.342v85.36h-85.342z" fill="#EC87C0" p-id="9565"></path><path d="M469.32 469.328h85.358v85.36H469.32z" fill="#48CFAD" p-id="9566"></path><path d="M554.678 469.328h85.31v85.36h-85.31z" fill="#5D9CEC" p-id="9567"></path><path d="M639.988 469.328h85.31v85.36h-85.31z" fill="#AC92EB" p-id="9568"></path><path d="M810.672 298.678h85.308v85.324h-85.308z" fill="#ED5564" p-id="9569"></path><path d="M810.672 384.002h85.308v85.326h-85.308z" fill="#A0D468" p-id="9570"></path><path d="M810.672 469.328h85.308v85.36h-85.308z" fill="#FFCE54" p-id="9571"></path></svg>