<?xml version="1.0" standalone="no"?><!DOCTYPE svg PUBLIC "-//W3C//DTD SVG 1.1//EN" "http://www.w3.org/Graphics/SVG/1.1/DTD/svg11.dtd"><svg t="1729861012768" class="icon" viewBox="0 0 1070 1024" version="1.1" xmlns="http://www.w3.org/2000/svg" p-id="13702" xmlns:xlink="http://www.w3.org/1999/xlink" width="208.984375" height="200"><path d="M139.636364 0h791.272727c76.8 0 139.636364 62.836364 139.636364 139.636364v744.727272c0 76.8-62.836364 139.636364-139.636364 139.636364H139.636364c-76.8 0-139.636364-62.836364-139.636364-139.636364V139.636364c0-76.8 62.836364-139.636364 139.636364-139.636364z m93.090909 409.6c-13.963636 0-23.272727 9.309091-23.272728 23.272727v342.109091c0 13.963636 9.309091 23.272727 23.272728 23.272727h605.090909c13.963636 0 23.272727-9.309091 23.272727-23.272727V432.872727c0-13.963636-9.309091-23.272727-23.272727-23.272727H232.727273z m258.327272 116.363636l-27.927272 155.927273h-37.236364l-18.618182-100.072727-2.327272-9.309091-2.327273 9.309091-18.618182 100.072727h-39.563636l-27.927273-155.927273H349.090909l11.636364 102.4 2.327272 11.636364 2.327273-11.636364 18.618182-102.4H418.909091l20.945454 104.727273 2.327273 11.636364 2.327273-11.636364 11.636364-104.727273h34.90909z m123.345455 158.254546h-107.054545v-155.927273h104.727272V558.545455h-67.490909v30.254545h62.836364v32.581818h-62.836364V651.636364h69.818182v32.581818z m90.763636 0h-67.490909v-155.927273h65.163637c30.254545 0 46.545455 13.963636 48.872727 39.563636 0 16.290909-6.981818 27.927273-20.945455 34.909091 16.290909 6.981818 23.272727 18.618182 25.6 34.909091 0 30.254545-16.290909 46.545455-51.2 46.545455z m-6.981818-128h-25.6v32.581818H698.181818c11.636364 0 16.290909-6.981818 18.618182-16.290909-2.327273-11.636364-9.309091-16.290909-18.618182-16.290909z m2.327273 62.836363h-27.927273v34.909091h27.927273c13.963636 0 20.945455-6.981818 20.945454-18.618181-2.327273-9.309091-9.309091-16.290909-20.945454-16.29091zM232.727273 223.418182c-13.963636 0-23.272727 9.309091-23.272728 23.272727v93.090909c0 13.963636 9.309091 23.272727 23.272728 23.272727h605.090909c13.963636 0 23.272727-9.309091 23.272727-23.272727v-93.090909c0-13.963636-9.309091-23.272727-23.272727-23.272727H232.727273z m507.345454 41.890909c16.290909 0 30.254545 13.963636 30.254546 27.927273 0 16.290909-13.963636 27.927273-30.254546 27.927272s-27.927273-13.963636-27.927272-27.927272 11.636364-27.927273 27.927272-27.927273z m-93.090909 0c16.290909 0 27.927273 13.963636 27.927273 27.927273 0 16.290909-13.963636 27.927273-27.927273 27.927272-16.290909 0-27.927273-13.963636-27.927273-27.927272s11.636364-27.927273 27.927273-27.927273z m-93.090909 0c16.290909 0 27.927273 13.963636 27.927273 27.927273 0 16.290909-13.963636 27.927273-27.927273 27.927272-16.290909 0-27.927273-13.963636-27.927273-27.927272s11.636364-27.927273 27.927273-27.927273z" fill="#49A0A7" p-id="13703"></path></svg>